<svg width="538" height="280" viewBox="0 0 538 280" fill="none" xmlns="http://www.w3.org/2000/svg">
<g clip-path="url(#clip0_571_2)">
<path d="M211.907 197.851C211.907 197.851 188.175 160.689 195.342 130.01C198.59 116.14 226.975 110.483 229.913 106.604C234.435 100.637 229.44 78.2353 239.92 70.5878C264.442 52.6754 314.03 64.4878 314.03 64.4878C314.03 64.4878 310.77 83.0824 298.287 97.7394C286.444 111.653 263.969 120.237 257.567 128.6C251.218 136.9 245.131 159.354 234.698 174.633C224.806 189.119 211.907 197.851 211.907 197.851Z" fill="#F09C8C"/>
<path d="M322.761 69.6453C332.179 76.0254 349.58 104.666 353.446 113.594C375.445 164.449 319.745 225.873 271.398 222.386C255.039 221.203 217.928 204.912 217.928 204.912C217.928 204.912 240.818 185.925 248.988 179.776C257.606 173.307 277.268 171.008 291.144 153.175C304.462 136.064 301.933 116.528 307.439 104.494C311.22 96.263 322.761 69.6453 322.761 69.6453Z" fill="#F09C8C"/>
</g>
<path d="M156.4 188.19H130.18V222H93.84V188.19H7.13V163.12L83.03 61H122.13L51.75 157.83H94.99V127.7H130.18V157.83H156.4V188.19Z" fill="#F09C8C"/>
<path d="M535.4 188.19H509.18V222H472.84V188.19H386.13V163.12L462.03 61H501.13L430.75 157.83H473.99V127.7H509.18V157.83H535.4V188.19Z" fill="#F09C8C"/>
<defs>
<clipPath id="clip0_571_2">
<rect width="164.622" height="159.809" fill="white" transform="translate(168.835 99.3804) rotate(-22.8375)"/>
</clipPath>
</defs>
</svg>
