<svg width="182" height="176" viewBox="0 0 182 176" fill="none" xmlns="http://www.w3.org/2000/svg">
<path d="M1.63738 118.348C1.63738 118.348 -6.59758 70.4876 13.8683 42.4145C23.1293 29.7256 54.4761 36.1167 59.1336 33.4349C66.302 29.312 70.8245 4.4411 84.7834 1.15878C117.453 -6.53998 162.908 26.6434 162.908 26.6434C162.908 26.6434 151.608 44.1224 132.6 53.6624C114.564 62.7222 87.9829 61.8282 77.8715 67.5789C67.841 73.2896 52.0056 93.4772 34.8202 104.525C18.5258 114.999 1.63738 118.348 1.63738 118.348Z" fill="#F09C8C"/>
<path d="M169.591 35.6101C176.449 46.1108 181.889 82.6166 181.997 93.3308C182.591 154.347 99.4857 192.881 51.7229 168.677C35.5635 160.485 4.74316 128.089 4.74316 128.089C4.74316 128.089 36.2115 118.602 47.1734 115.853C58.7294 112.971 79.7488 119.042 101.538 106.874C122.449 95.1988 128.254 74.2907 139.027 64.4304C146.411 57.6923 169.591 35.6101 169.591 35.6101Z" fill="#F09C8C"/>
</svg>
