<svg width="353" height="96" viewBox="0 0 353 96" fill="none" xmlns="http://www.w3.org/2000/svg">
<path d="M0.845678 66.1913C0.845678 66.1913 -3.40754 41.4453 7.16276 26.9302C11.9459 20.3695 28.136 23.674 30.5415 22.2873C34.2439 20.1556 36.5797 7.29625 43.7893 5.59914C60.6627 1.61854 84.1391 18.7759 84.1391 18.7759C84.1391 18.7759 78.3031 27.8133 68.4858 32.7459C59.1706 37.4302 45.4417 36.968 40.2193 39.9414C35.0388 42.8941 26.86 53.3319 17.9841 59.0441C9.56827 64.4597 0.845678 66.1913 0.845678 66.1913Z" fill="#F09C8C"/>
<path d="M87.5903 23.4121C91.1323 28.8415 93.9422 47.7166 93.998 53.2563C94.3048 84.8045 51.3822 104.728 26.7135 92.2139C18.3674 87.978 2.44922 71.2277 2.44922 71.2277C2.44922 71.2277 18.7021 66.3227 24.3638 64.9015C30.3322 63.4114 41.1884 66.5503 52.442 60.2586C63.2424 54.2222 66.2405 43.4117 71.8046 38.3135C75.6185 34.8296 87.5903 23.4121 87.5903 23.4121Z" fill="#F09C8C"/>
<path d="M133.082 90.308C131.234 90.308 128.924 90.14 126.152 89.804C123.464 89.552 120.608 89.048 117.584 88.292C114.56 87.62 111.746 86.696 109.142 85.52C106.538 84.344 104.396 82.874 102.716 81.11C101.036 79.346 100.196 77.246 100.196 74.81C100.196 71.366 101.204 68.426 103.22 65.99C105.236 63.554 107.798 61.58 110.906 60.068C114.098 58.556 117.374 57.422 120.734 56.666C124.178 55.826 127.286 55.322 130.058 55.154C131.99 51.542 134.174 47.594 136.61 43.31C139.046 38.942 141.608 34.7 144.296 30.584C147.068 26.468 149.798 22.982 152.486 20.126C153.662 18.866 154.964 18.068 156.392 17.732C157.904 17.312 159.5 17.102 161.18 17.102C161.768 17.102 162.398 17.228 163.07 17.48C163.742 17.648 164.12 18.11 164.204 18.866C164.036 19.622 163.532 20.42 162.692 21.26C161.936 22.1 161.306 22.772 160.802 23.276C156.938 27.56 152.948 32.516 148.832 38.144C144.716 43.772 140.894 49.442 137.366 55.154C142.994 55.238 148.79 55.658 154.754 56.414C160.802 57.17 166.682 58.43 172.394 60.194C178.106 61.874 183.314 64.31 188.018 67.502C189.11 66.326 190.076 64.982 190.916 63.47C191.756 61.958 192.176 60.362 192.176 58.682C192.176 56.246 191.294 54.146 189.53 52.382C187.766 50.618 185.498 49.19 182.726 48.098C179.954 46.922 176.972 45.998 173.78 45.326C170.672 44.654 167.69 44.192 164.834 43.94C162.062 43.688 159.794 43.562 158.03 43.562C157.526 43.562 156.728 43.604 155.636 43.688C154.628 43.688 153.704 43.562 152.864 43.31C152.024 43.058 151.604 42.512 151.604 41.672C151.604 40.328 152.192 39.446 153.368 39.026C154.628 38.522 155.762 38.186 156.77 38.018C160.718 37.262 164.708 36.632 168.74 36.128C172.772 35.54 176.72 34.658 180.584 33.482C184.448 32.222 188.018 30.29 191.294 27.686C191.966 27.182 192.68 26.552 193.436 25.796C194.276 25.04 194.696 24.242 194.696 23.402C194.696 21.974 193.604 20.798 191.42 19.874C189.32 18.866 186.632 18.068 183.356 17.48C180.08 16.892 176.678 16.472 173.15 16.22C169.706 15.884 166.598 15.674 163.826 15.59C161.054 15.506 159.122 15.464 158.03 15.464C150.89 15.464 144.212 15.968 137.996 16.976C131.864 17.984 125.312 19.37 118.34 21.134C117.584 21.302 116.408 21.68 114.812 22.268C113.216 22.772 111.662 23.234 110.15 23.654C108.722 24.074 107.756 24.284 107.252 24.284C106.664 24.284 106.16 24.158 105.74 23.906C105.32 23.57 105.11 23.108 105.11 22.52C105.11 20.756 106.076 19.244 108.008 17.984C110.024 16.64 112.628 15.548 115.82 14.708C119.012 13.784 122.498 13.07 126.278 12.566C130.058 12.062 133.754 11.684 137.366 11.432C141.062 11.096 144.338 10.886 147.194 10.802C150.05 10.718 152.108 10.676 153.368 10.676C154.88 10.676 157.064 10.76 159.92 10.928C162.86 11.012 166.136 11.222 169.748 11.558C173.444 11.894 177.14 12.398 180.836 13.07C184.616 13.742 188.102 14.582 191.294 15.59C194.486 16.598 197.048 17.858 198.98 19.37C200.912 20.798 201.878 22.52 201.878 24.536C201.878 26.468 201.038 28.232 199.358 29.828C197.762 31.424 195.62 32.894 192.932 34.238C190.328 35.498 187.556 36.59 184.616 37.514C181.676 38.438 178.904 39.194 176.3 39.782C173.696 40.286 171.554 40.622 169.874 40.79C172.73 41.042 175.922 41.63 179.45 42.554C182.978 43.394 186.38 44.612 189.656 46.208C192.932 47.72 195.62 49.568 197.72 51.752C199.82 53.936 200.87 56.414 200.87 59.186C200.87 61.79 200.072 64.184 198.476 66.368C196.964 68.552 195.326 70.484 193.562 72.164C194.234 72.836 195.032 73.97 195.956 75.566C196.964 77.162 197.468 78.464 197.468 79.472C197.468 80.06 197.342 80.564 197.09 80.984C196.922 81.404 196.67 81.614 196.334 81.614C195.998 81.614 195.704 81.404 195.452 80.984C194.696 79.808 193.856 78.632 192.932 77.456C192.008 76.28 191.21 75.356 190.538 74.684C185.498 78.38 179.66 81.362 173.024 83.63C166.388 85.982 159.584 87.662 152.612 88.67C145.724 89.762 139.214 90.308 133.082 90.308ZM133.082 87.284C138.962 87.284 145.052 86.738 151.352 85.646C157.736 84.554 163.91 82.79 169.874 80.354C175.922 77.918 181.256 74.684 185.876 70.652C180.248 66.872 173.57 64.1 165.842 62.336C158.114 60.488 150.134 59.564 141.902 59.564C140.978 59.564 140.012 59.564 139.004 59.564C138.08 59.564 137.156 59.606 136.232 59.69L134.594 59.816C133.166 62.252 131.78 64.856 130.436 67.628C129.092 70.4 127.958 73.088 127.034 75.692C126.194 78.296 125.774 80.606 125.774 82.622C125.774 83.294 125.564 84.05 125.144 84.89C124.808 85.814 124.304 86.276 123.632 86.276C126.824 86.948 129.974 87.284 133.082 87.284ZM121.364 85.646C120.776 85.226 120.356 84.47 120.104 83.378C119.936 82.37 119.852 81.53 119.852 80.858C119.852 79.01 120.272 76.826 121.112 74.306C122.036 71.786 123.086 69.308 124.262 66.872C125.438 64.352 126.446 62.252 127.286 60.572C124.598 60.992 121.826 61.748 118.97 62.84C116.114 63.932 113.72 65.528 111.788 67.628C109.856 69.644 108.89 72.374 108.89 75.818C108.89 77.75 109.604 79.388 111.032 80.732C112.544 81.992 114.266 83 116.198 83.756C118.214 84.596 119.936 85.226 121.364 85.646ZM219.175 83.882C215.479 83.882 212.245 83 209.473 81.236C206.701 79.472 205.315 76.532 205.315 72.416C205.315 69.896 205.987 67.292 207.331 64.604C208.759 61.832 210.607 59.27 212.875 56.918C215.143 54.566 217.579 52.676 220.183 51.248C222.871 49.736 225.517 48.98 228.121 48.98C229.465 48.98 230.599 49.358 231.523 50.114C232.447 50.786 232.909 51.836 232.909 53.264C232.909 54.944 232.153 56.666 230.641 58.43C229.213 60.194 227.407 61.874 225.223 63.47C223.123 64.982 220.981 66.326 218.797 67.502C216.613 68.594 214.807 69.392 213.379 69.896C213.127 70.904 213.001 71.954 213.001 73.046C213.001 74.978 213.505 76.7 214.513 78.212C215.605 79.724 217.453 80.48 220.057 80.48C222.661 80.48 225.013 79.976 227.113 78.968C229.297 77.876 231.271 76.574 233.035 75.062C234.799 73.466 236.395 71.954 237.823 70.526C238.999 69.35 239.965 68.384 240.721 67.628C241.477 66.788 242.149 66.074 242.737 65.486C242.989 65.234 243.367 65.108 243.871 65.108C244.291 65.108 244.627 65.276 244.879 65.612C245.131 65.864 245.047 66.2 244.627 66.62C244.291 67.04 243.703 67.67 242.863 68.51C242.107 69.266 241.351 70.064 240.595 70.904C239.923 71.66 239.419 72.206 239.083 72.542C235.387 76.49 231.859 79.388 228.499 81.236C225.139 83 222.031 83.882 219.175 83.882ZM213.757 67.376C214.597 67.208 215.773 66.704 217.285 65.864C218.881 64.94 220.435 63.89 221.947 62.714C222.619 62.126 223.543 61.244 224.719 60.068C225.895 58.892 226.693 57.884 227.113 57.044C227.701 55.952 227.995 55.07 227.995 54.398C227.995 53.39 227.449 52.886 226.357 52.886C225.769 52.886 225.139 53.012 224.467 53.264C223.627 53.6 222.619 54.44 221.443 55.784C220.267 57.128 219.343 58.178 218.671 58.934C217.663 60.194 216.697 61.58 215.773 63.092C214.933 64.52 214.261 65.948 213.757 67.376ZM250.381 84.764C246.349 84.764 243.409 83.462 241.561 80.858C239.713 78.17 238.789 74.978 238.789 71.282C238.789 68.426 239.629 64.898 241.309 60.698C242.989 56.498 245.215 52.004 247.987 47.216C250.843 42.344 254.035 37.598 257.563 32.978C261.175 28.274 264.871 23.99 268.651 20.126C272.515 16.262 276.253 13.196 279.865 10.928C283.561 8.576 286.879 7.4 289.819 7.4C291.247 7.4 292.633 7.988 293.977 9.164C295.321 10.34 295.993 11.684 295.993 13.196C295.993 15.548 295.069 18.32 293.221 21.512C291.373 24.704 288.937 28.106 285.913 31.718C282.889 35.33 279.529 38.984 275.833 42.68C272.221 46.376 268.525 49.904 264.745 53.264C261.049 56.624 257.563 59.69 254.287 62.462C251.095 65.15 248.449 67.292 246.349 68.888C246.265 69.56 246.181 70.232 246.097 70.904C246.097 71.492 246.097 72.122 246.097 72.794C246.097 75.146 246.559 77.036 247.483 78.464C248.407 79.892 250.129 80.606 252.649 80.606C255.337 80.606 257.941 79.976 260.461 78.716C263.065 77.456 265.501 75.902 267.769 74.054C270.037 72.206 272.011 70.442 273.691 68.762C275.455 66.998 276.841 65.612 277.849 64.604C277.933 64.52 278.059 64.478 278.227 64.478C278.563 64.478 278.815 64.73 278.983 65.234C279.235 65.654 279.277 65.99 279.109 66.242C278.185 67.418 277.051 68.678 275.707 70.022C274.447 71.366 273.439 72.458 272.683 73.298C269.827 76.154 266.467 78.8 262.603 81.236C258.739 83.588 254.665 84.764 250.381 84.764ZM246.601 65.36C249.373 63.512 252.565 60.908 256.177 57.548C259.873 54.104 263.611 50.324 267.391 46.208C271.255 42.008 274.783 37.808 277.975 33.608C281.251 29.324 283.897 25.334 285.913 21.638C287.929 17.858 288.937 14.792 288.937 12.44C288.937 12.02 288.853 11.642 288.685 11.306C288.601 10.886 288.265 10.676 287.677 10.676C285.997 10.676 284.023 11.558 281.755 13.322C279.487 15.002 277.135 17.228 274.699 20C272.263 22.688 269.869 25.544 267.517 28.568C265.249 31.592 263.233 34.406 261.469 37.01C259.705 39.614 258.361 41.63 257.437 43.058C255.253 46.586 253.195 50.24 251.263 54.02C249.331 57.8 247.777 61.58 246.601 65.36ZM284.711 84.764C280.679 84.764 277.739 83.462 275.891 80.858C274.043 78.17 273.119 74.978 273.119 71.282C273.119 68.426 273.959 64.898 275.639 60.698C277.319 56.498 279.545 52.004 282.317 47.216C285.173 42.344 288.365 37.598 291.893 32.978C295.505 28.274 299.201 23.99 302.981 20.126C306.845 16.262 310.583 13.196 314.195 10.928C317.891 8.576 321.209 7.4 324.149 7.4C325.577 7.4 326.963 7.988 328.307 9.164C329.651 10.34 330.323 11.684 330.323 13.196C330.323 15.548 329.399 18.32 327.551 21.512C325.703 24.704 323.267 28.106 320.243 31.718C317.219 35.33 313.859 38.984 310.163 42.68C306.551 46.376 302.855 49.904 299.075 53.264C295.379 56.624 291.893 59.69 288.617 62.462C285.425 65.15 282.779 67.292 280.679 68.888C280.595 69.56 280.511 70.232 280.427 70.904C280.427 71.492 280.427 72.122 280.427 72.794C280.427 75.146 280.889 77.036 281.813 78.464C282.737 79.892 284.459 80.606 286.979 80.606C289.667 80.606 292.271 79.976 294.791 78.716C297.395 77.456 299.831 75.902 302.099 74.054C304.367 72.206 306.341 70.442 308.021 68.762C309.785 66.998 311.171 65.612 312.179 64.604C312.263 64.52 312.389 64.478 312.557 64.478C312.893 64.478 313.145 64.73 313.313 65.234C313.565 65.654 313.607 65.99 313.439 66.242C312.515 67.418 311.381 68.678 310.037 70.022C308.777 71.366 307.769 72.458 307.013 73.298C304.157 76.154 300.797 78.8 296.933 81.236C293.069 83.588 288.995 84.764 284.711 84.764ZM280.931 65.36C283.703 63.512 286.895 60.908 290.507 57.548C294.203 54.104 297.941 50.324 301.721 46.208C305.585 42.008 309.113 37.808 312.305 33.608C315.581 29.324 318.227 25.334 320.243 21.638C322.259 17.858 323.267 14.792 323.267 12.44C323.267 12.02 323.183 11.642 323.015 11.306C322.931 10.886 322.595 10.676 322.007 10.676C320.327 10.676 318.353 11.558 316.085 13.322C313.817 15.002 311.465 17.228 309.029 20C306.593 22.688 304.199 25.544 301.847 28.568C299.579 31.592 297.563 34.406 295.799 37.01C294.035 39.614 292.691 41.63 291.767 43.058C289.583 46.586 287.525 50.24 285.593 54.02C283.661 57.8 282.107 61.58 280.931 65.36ZM311.733 84.638C309.801 84.638 308.247 84.134 307.071 83.126C305.979 82.202 305.433 80.732 305.433 78.716C305.433 75.524 306.231 72.5 307.827 69.644C309.507 66.704 311.271 64.058 313.119 61.706C313.035 61.286 312.951 60.866 312.867 60.446C312.867 59.942 312.867 59.48 312.867 59.06C312.867 56.624 313.497 54.356 314.757 52.256C316.101 50.156 317.823 48.476 319.923 47.216C322.107 45.872 324.375 45.2 326.727 45.2C329.667 45.2 331.851 46.04 333.279 47.72C334.791 49.316 335.547 51.584 335.547 54.524C335.547 57.632 334.791 60.824 333.279 64.1C331.851 67.292 330.339 70.19 328.743 72.794C329.163 73.046 329.793 73.298 330.633 73.55C331.557 73.802 332.355 73.928 333.027 73.928C335.967 73.928 338.487 73.424 340.587 72.416C342.771 71.324 345.333 69.434 348.273 66.746C348.693 66.326 349.029 66.116 349.281 66.116C349.617 66.116 349.785 66.41 349.785 66.998C349.785 67.67 349.491 68.342 348.903 69.014C347.055 71.282 344.619 73.13 341.595 74.558C338.571 75.986 335.631 76.7 332.775 76.7C331.767 76.7 330.759 76.616 329.751 76.448C328.743 76.28 327.777 76.028 326.853 75.692C325.005 78.044 322.821 80.144 320.301 81.992C317.781 83.756 314.925 84.638 311.733 84.638ZM325.341 71.156C326.349 69.14 327.231 66.83 327.987 64.226C328.743 61.622 329.205 58.976 329.373 56.288C329.541 54.86 329.205 53.39 328.365 51.878C327.609 50.366 326.265 49.61 324.333 49.61C322.485 49.61 320.931 50.282 319.671 51.626C318.495 52.97 317.781 54.734 317.529 56.918C318.117 56.498 318.873 56.12 319.797 55.784C320.805 55.448 321.645 55.28 322.317 55.28C323.409 55.28 324.291 55.574 324.963 56.162C325.635 56.666 325.971 57.254 325.971 57.926C325.971 58.766 325.425 59.354 324.333 59.69C323.325 60.026 322.233 60.656 321.057 61.58C319.965 62.504 319.167 63.344 318.663 64.1C319.335 65.444 320.301 66.746 321.561 68.006C322.821 69.266 324.081 70.316 325.341 71.156ZM314.757 80.984C315.597 80.984 316.647 80.564 317.907 79.724C319.167 78.8 320.343 77.792 321.435 76.7C322.611 75.608 323.451 74.726 323.955 74.054C322.779 73.382 321.351 72.29 319.671 70.778C318.075 69.266 316.815 67.964 315.891 66.872C315.387 67.46 314.841 68.468 314.253 69.896C313.665 71.24 313.161 72.668 312.741 74.18C312.321 75.692 312.111 76.952 312.111 77.96C312.111 79.976 312.993 80.984 314.757 80.984Z" fill="#F09C8C"/>
</svg>
