<svg width="186" height="186" viewBox="0 0 186 186" fill="none" xmlns="http://www.w3.org/2000/svg">
<path d="M148.794 73.8247C159.332 104.658 142.879 138.197 112.045 148.735C81.2116 159.273 47.6732 142.82 37.1352 111.986C26.5972 81.1524 43.0501 47.614 73.8839 37.076C104.718 26.538 138.256 42.9909 148.794 73.8247Z" fill="white"/>
<path d="M159.878 88.0777L144.639 90.2979L144.233 87.5113L157.077 85.64L155.926 77.7375L143.082 79.6088L142.676 76.8222L157.915 74.602L159.878 88.0777Z" fill="#740B0B"/>
<path d="M143.694 101.024C143.914 99.8567 144.364 98.8519 145.044 98.0099C145.725 97.1678 146.562 96.5641 147.556 96.1988C148.562 95.8506 149.634 95.7836 150.773 95.9977C151.911 96.2118 152.879 96.6623 153.675 97.3492C154.468 98.0505 155.029 98.9171 155.358 99.9489C155.686 100.981 155.74 102.08 155.521 103.248C155.299 104.43 154.847 105.442 154.167 106.284C153.486 107.126 152.65 107.722 151.659 108.073C150.665 108.439 149.598 108.514 148.46 108.3C147.321 108.086 146.348 107.627 145.54 106.923C144.744 106.236 144.182 105.377 143.853 104.345C143.525 103.313 143.472 102.206 143.694 101.024ZM146.008 101.459C145.821 102.454 145.998 103.338 146.539 104.111C147.08 104.884 147.891 105.373 148.972 105.576C150.053 105.779 150.986 105.619 151.771 105.095C152.556 104.571 153.042 103.812 153.229 102.817C153.416 101.822 153.239 100.938 152.698 100.165C152.154 99.4063 151.342 98.9252 150.261 98.7219C149.179 98.5187 148.248 98.6719 147.465 99.1814C146.68 99.7054 146.194 100.465 146.008 101.459Z" fill="#740B0B"/>
<path d="M138.127 122.713L133.74 120.42L134.932 118.139L137.253 119.351L141.45 111.318L139.13 110.106L140.312 107.844L144.699 110.136L144.444 110.624C144.124 111.3 144.312 111.969 145.009 112.631C145.712 113.313 146.797 114.087 148.264 114.953L151.761 116.954L147.278 125.533L138.932 121.172L138.127 122.713ZM146.927 117.084C145.758 116.407 144.834 115.8 144.155 115.263C143.476 114.726 143.053 114.174 142.886 113.607L140.206 118.735L146.484 122.016L148.573 118.019L146.927 117.084Z" fill="#740B0B"/>
<path d="M138.058 137.476C137.24 138.276 136.337 138.81 135.348 139.079C134.349 139.358 133.349 139.352 132.346 139.061C131.343 138.77 130.427 138.199 129.596 137.35C128.765 136.501 128.211 135.566 127.932 134.547C127.663 133.537 127.679 132.537 127.981 131.545C128.272 130.562 128.827 129.672 129.645 128.872C130.777 127.764 132.043 127.265 133.442 127.374L129.458 123.3L131.424 121.378L142.622 132.829L140.75 134.659L139.673 133.558C139.738 134.275 139.631 134.963 139.354 135.624C139.067 136.295 138.634 136.912 138.058 137.476ZM131.51 130.34C130.787 131.047 130.43 131.868 130.44 132.801C130.44 133.745 130.825 134.61 131.594 135.397C132.363 136.183 133.219 136.587 134.163 136.608C135.096 136.639 135.924 136.301 136.648 135.593C137.119 135.132 137.437 134.607 137.599 134.017C137.771 133.438 137.773 132.842 137.603 132.228C137.434 131.614 137.093 131.045 136.58 130.521C136.067 129.997 135.506 129.643 134.896 129.46C134.286 129.277 133.685 129.259 133.092 129.408C132.51 129.568 131.982 129.878 131.51 130.34Z" fill="#740B0B"/>
<path d="M117.401 138.094C118.461 137.558 119.533 137.305 120.615 137.333C121.698 137.361 122.686 137.658 123.581 138.225C124.469 138.811 125.174 139.622 125.697 140.656C126.219 141.69 126.45 142.732 126.389 143.781C126.315 144.838 125.968 145.81 125.349 146.698C124.73 147.586 123.89 148.298 122.83 148.834C121.756 149.377 120.679 149.634 119.596 149.606C118.514 149.578 117.532 149.277 116.65 148.704C115.756 148.137 115.047 147.337 114.525 146.303C114.002 145.268 113.774 144.217 113.842 143.147C113.903 142.098 114.243 141.129 114.862 140.24C115.482 139.352 116.328 138.637 117.401 138.094ZM118.463 140.195C117.56 140.652 116.966 141.33 116.681 142.23C116.397 143.13 116.502 144.07 116.999 145.052C117.495 146.034 118.19 146.677 119.083 146.981C119.976 147.286 120.875 147.21 121.778 146.753C122.681 146.297 123.275 145.618 123.56 144.719C123.831 143.825 123.719 142.888 123.223 141.906C122.726 140.924 122.038 140.278 121.158 139.967C120.265 139.663 119.366 139.739 118.463 140.195Z" fill="#740B0B"/>
<path d="M104.219 154.574C103.121 154.764 102.111 154.693 101.191 154.361C100.272 154.044 99.5094 153.506 98.9018 152.748C98.2798 151.993 97.8749 151.073 97.6872 149.989C97.4945 148.876 97.5832 147.841 97.9533 146.884C98.3259 145.941 98.9406 145.15 99.7974 144.511C100.654 143.871 101.682 143.448 102.882 143.24C104.89 142.892 106.559 143.288 107.888 144.427C109.216 145.566 110.097 147.386 110.53 149.886C110.933 152.213 110.753 154.142 109.991 155.673C109.23 157.204 107.86 158.364 105.883 159.153L100.706 161.233L99.8954 158.873L104.6 157.031C105.952 156.499 106.915 155.826 107.488 155.012C108.062 154.199 108.297 153.153 108.195 151.876C107.783 152.587 107.237 153.173 106.557 153.633C105.88 154.108 105.101 154.421 104.219 154.574ZM103.196 145.44C102.199 145.613 101.452 146.07 100.955 146.811C100.446 147.569 100.278 148.446 100.451 149.444C100.623 150.441 101.073 151.189 101.799 151.688C102.512 152.19 103.366 152.355 104.363 152.182C105.375 152.007 106.139 151.562 106.655 150.847C107.171 150.133 107.343 149.277 107.171 148.28C106.995 147.268 106.542 146.498 105.811 145.97C105.065 145.444 104.193 145.268 103.196 145.44Z" fill="#740B0B"/>
<path d="M91.3839 156.552L88.6599 156.175L89.3156 151.446L83.4537 150.633L82.798 155.362L80.0741 154.984L81.6877 143.347L84.4116 143.725L83.774 148.323L89.6359 149.136L90.2735 144.538L92.9974 144.916L91.3839 156.552Z" fill="#740B0B"/>
<path d="M64.9619 143.107C65.0415 142.934 65.1681 142.693 65.3417 142.386L73.7181 146.234C73.9327 145.38 73.8407 144.579 73.4419 143.831C73.0237 143.09 72.3547 142.509 71.4351 142.086C70.2623 141.547 69.1185 141.49 68.0037 141.914L67.3715 139.759C68.1145 139.407 68.9199 139.252 69.7876 139.296C70.6554 139.339 71.549 139.572 72.4686 139.995C73.6414 140.533 74.5672 141.241 75.2458 142.118C75.9245 142.994 76.3206 143.959 76.4341 145.012C76.5282 146.072 76.3333 147.129 75.8497 148.181C75.3721 149.221 74.7103 150.047 73.8642 150.659C72.9987 151.278 72.039 151.628 70.985 151.709C69.9311 151.789 68.8777 151.588 67.8248 151.104C66.7853 150.627 65.9661 149.968 65.3675 149.128C64.7493 148.295 64.4065 147.355 64.3391 146.307C64.2523 145.267 64.4599 144.2 64.9619 143.107ZM68.7432 149.105C69.5429 149.473 70.3328 149.545 71.113 149.322C71.8737 149.107 72.4946 148.633 72.9758 147.902L66.9184 145.119C66.6699 145.941 66.7087 146.718 67.0347 147.449C67.3607 148.18 67.9302 148.732 68.7432 149.105Z" fill="#740B0B"/>
<path d="M51.8527 133.094C51.9782 132.95 52.168 132.756 52.4219 132.51L59.3585 138.581C59.8069 137.824 59.9464 137.03 59.7768 136.199C59.5865 135.37 59.1105 134.622 58.349 133.956C57.3778 133.106 56.2975 132.725 55.1081 132.815L55.1146 130.569C55.9273 130.443 56.7434 130.523 57.5629 130.812C58.3824 131.1 59.1729 131.578 59.9345 132.244C60.9057 133.094 61.592 134.036 61.9934 135.069C62.3948 136.103 62.5002 137.14 62.3097 138.182C62.0985 139.225 61.6114 140.183 60.8483 141.055C60.0949 141.915 59.2256 142.519 58.2404 142.865C57.2346 143.213 56.2149 143.275 55.1816 143.053C54.1482 142.831 53.1955 142.338 52.3236 141.575C51.4627 140.822 50.8647 139.957 50.5296 138.982C50.1737 138.008 50.1124 137.009 50.3457 135.985C50.5583 134.963 51.0606 133.999 51.8527 133.094ZM53.7725 139.92C54.4347 140.499 55.1714 140.793 55.9827 140.802C56.7733 140.811 57.5032 140.534 58.1724 139.97L53.1562 135.58C52.6843 136.297 52.5007 137.052 52.6055 137.846C52.7103 138.639 53.0993 139.33 53.7725 139.92Z" fill="#740B0B"/>
<path d="M34.4421 127.294L33.2406 125.067L51.3625 115.289L52.564 117.515L34.4421 127.294Z" fill="#740B0B"/>
<path d="M25.8981 94.4842L41.2285 93.0221L41.4959 95.8254L28.5745 97.0577L29.3327 105.008L42.254 103.775L42.5214 106.579L27.1909 108.041L25.8981 94.4842Z" fill="#740B0B"/>
<path d="M42.679 82.3673C42.3996 83.522 41.8984 84.5023 41.1753 85.3082C40.4523 86.1141 39.585 86.6739 38.5736 86.9876C37.5513 87.2835 36.4771 87.2953 35.3509 87.0229C34.2247 86.7504 33.2818 86.2507 32.5221 85.5237C31.7658 84.7825 31.2503 83.8882 30.9755 82.8409C30.7007 81.7936 30.703 80.6926 30.9823 79.5379C31.2651 78.3689 31.768 77.3815 32.4911 76.5756C33.2142 75.7697 34.0797 75.217 35.0877 74.9176C36.0991 74.604 37.1679 74.5833 38.2941 74.8558C39.4203 75.1282 40.3686 75.6368 41.1392 76.3815C41.8989 77.1084 42.4161 77.9956 42.6909 79.0429C42.9657 80.0902 42.9617 81.1983 42.679 82.3673ZM40.3909 81.8138C40.6289 80.8302 40.4976 79.9383 39.997 79.1382C39.4964 78.3381 38.7115 77.8087 37.6424 77.5501C36.5732 77.2914 35.6332 77.4036 34.8222 77.8864C34.0113 78.3693 33.4869 79.1026 33.2489 80.0862C33.011 81.0698 33.1423 81.9617 33.6429 82.7618C34.1469 83.5477 34.9335 84.0699 36.0027 84.3286C37.0718 84.5872 38.0102 84.4822 38.8176 84.0136C39.6286 83.5307 40.153 82.7975 40.3909 81.8138Z" fill="#740B0B"/>
<path d="M49.2504 61.0507L53.5152 63.5633L52.2087 65.7811L49.953 64.4521L45.3521 72.2616L47.6077 73.5905L46.3123 75.7893L42.0474 73.2766L42.3266 72.8027C42.681 72.1434 42.5272 71.4655 41.8651 70.769C41.1978 70.0524 40.1536 69.2244 38.7324 68.285L35.3418 66.1087L40.2554 57.7685L48.3682 62.5481L49.2504 61.0507ZM40.1761 66.2246C41.3089 66.9601 42.2008 67.6132 42.8518 68.184C43.5028 68.7548 43.8973 69.3277 44.0352 69.9026L46.9722 64.9175L40.8687 61.3216L38.5794 65.2074L40.1761 66.2246Z" fill="#740B0B"/>
<path d="M50.199 46.0927C51.0576 45.3366 51.9874 44.8501 52.9884 44.633C54.0004 44.4063 54.9995 44.4646 55.9857 44.8077C56.9719 45.1509 57.8576 45.7683 58.6427 46.6599C59.4279 47.5515 59.9331 48.5136 60.1585 49.5463C60.3742 50.568 60.3057 51.5665 59.9528 52.5417C59.6109 53.5072 59.0107 54.368 58.1521 55.124C56.9634 56.1709 55.6733 56.6034 54.2819 56.4215L58.0477 60.6978L55.9838 62.5152L45.3991 50.4954L47.3639 48.7652L48.3816 49.921C48.3545 49.2022 48.4966 48.5202 48.8077 47.8748C49.1299 47.2198 49.5937 46.6258 50.199 46.0927ZM56.3653 53.5609C57.1247 52.8921 57.5237 52.0913 57.5622 51.1585C57.6116 50.216 57.2728 49.3319 56.5459 48.5064C55.8189 47.6809 54.9848 47.233 54.0436 47.1629C53.1134 47.083 52.2686 47.3775 51.5091 48.0463C51.0138 48.4825 50.6697 48.9907 50.477 49.5708C50.2746 50.1399 50.242 50.7353 50.3792 51.3571C50.5164 51.979 50.8273 52.5651 51.312 53.1154C51.7966 53.6658 52.3387 54.0483 52.9382 54.263C53.5376 54.4777 54.1373 54.5262 54.7371 54.4084C55.3272 54.2796 55.8699 53.9971 56.3653 53.5609Z" fill="#740B0B"/>
<path d="M70.5836 46.6589C69.4978 47.1411 68.4152 47.3412 67.3355 47.2591C66.2559 47.177 65.2835 46.8305 64.4185 46.2198C63.5608 45.5897 62.8968 44.7452 62.4265 43.6863C61.9561 42.6274 61.7776 41.5753 61.891 40.5299C62.0178 39.4786 62.4126 38.5248 63.0755 37.6687C63.7383 36.8126 64.6126 36.1433 65.6983 35.6611C66.7974 35.1728 67.8868 34.9698 68.9664 35.0519C70.046 35.134 71.0117 35.4834 71.8634 36.1001C72.7285 36.7109 73.3962 37.5457 73.8666 38.6046C74.3369 39.6635 74.5117 40.7253 74.3909 41.79C74.2775 42.8354 73.8894 43.7862 73.2265 44.6423C72.5636 45.4985 71.6827 46.1706 70.5836 46.6589ZM69.6279 44.5076C70.5528 44.0967 71.1799 43.4491 71.5092 42.5646C71.8384 41.6801 71.7798 40.7352 71.3333 39.7299C70.8867 38.7246 70.2249 38.0476 69.3479 37.699C68.4708 37.3504 67.5698 37.3814 66.645 37.7923C65.7201 38.2031 65.093 38.8508 64.7638 39.7353C64.4479 40.6138 64.5132 41.5557 64.9598 42.561C65.4063 43.5663 66.0614 44.2462 66.9251 44.6008C67.8021 44.9495 68.7031 44.9184 69.6279 44.5076Z" fill="#740B0B"/>
<path d="M84.763 30.7504C85.8699 30.6192 86.8742 30.7439 87.7759 31.1245C88.6759 31.4904 89.409 32.0682 89.9751 32.8577C90.5559 33.6455 90.9109 34.5856 91.0404 35.678C91.1733 36.7995 91.0293 37.8282 90.6085 38.7642C90.186 39.6857 89.5299 40.4428 88.6401 41.0356C87.7504 41.6284 86.701 41.9965 85.4922 42.1397C83.4677 42.3796 81.8226 41.8951 80.5569 40.6863C79.2912 39.4775 78.509 37.6133 78.2105 35.0936C77.9326 32.7486 78.2151 30.8321 79.0578 29.3439C79.9006 27.8558 81.3302 26.7707 83.3466 26.0887L88.6275 24.2888L89.3107 26.6891L84.5141 28.2765C83.1359 28.7352 82.1386 29.3555 81.5223 30.1374C80.9061 30.9194 80.6147 31.9508 80.6484 33.2318C81.0985 32.5434 81.6751 31.9877 82.3782 31.5646C83.0796 31.1271 83.8745 30.8557 84.763 30.7504ZM85.2963 39.9254C86.3012 39.8063 87.0716 39.3901 87.6074 38.6768C88.156 37.9471 88.3708 37.0798 88.2517 36.0749C88.1326 35.0699 87.7237 34.2987 87.0249 33.7611C86.3407 33.2219 85.4961 33.0118 84.4912 33.1309C83.4716 33.2517 82.685 33.6551 82.1312 34.341C81.5774 35.0269 81.36 35.8724 81.4791 36.8774C81.5999 37.8969 82.0114 38.69 82.7136 39.2566C83.4304 39.8215 84.2913 40.0445 85.2963 39.9254Z" fill="#740B0B"/>
<path d="M97.7489 29.4115L100.45 29.9296L99.5502 34.6181L105.362 35.7331L106.262 31.0445L108.962 31.5626L106.749 43.1003L104.048 42.5822L104.923 38.0233L99.1109 36.9084L98.2364 41.4673L95.5356 40.9492L97.7489 29.4115Z" fill="#740B0B"/>
<path d="M123.51 44.2241C123.421 44.3928 123.282 44.626 123.092 44.9237L114.937 40.625C114.676 41.4657 114.725 42.2705 115.082 43.0392C115.459 43.8018 116.096 44.419 116.991 44.8909C118.133 45.4928 119.272 45.6124 120.408 45.2498L120.922 47.4357C120.161 47.7474 119.348 47.8578 118.484 47.7671C117.62 47.6763 116.74 47.395 115.845 46.9231C114.703 46.3212 113.817 45.5641 113.188 44.6517C112.558 43.7394 112.215 42.7545 112.159 41.697C112.123 40.6334 112.375 39.5891 112.915 38.5641C113.448 37.5522 114.154 36.7636 115.032 36.1986C115.93 35.6275 116.908 35.3303 117.965 35.3071C119.021 35.2839 120.062 35.5424 121.087 36.0828C122.099 36.6163 122.881 37.3187 123.433 38.19C124.005 39.0551 124.296 40.0127 124.306 41.0626C124.336 42.1064 124.071 43.1602 123.51 44.2241ZM120.061 38.0289C119.283 37.6185 118.498 37.5033 117.707 37.6831C116.935 37.8567 116.29 38.2955 115.769 38.9995L121.666 42.1081C121.959 41.3008 121.963 40.5235 121.677 39.776C121.391 39.0285 120.853 38.4461 120.061 38.0289Z" fill="#740B0B"/>
<path d="M135.992 54.7875C135.859 54.9243 135.659 55.1088 135.393 55.3409L128.78 48.9195C128.292 49.6528 128.112 50.4385 128.239 51.2768C128.386 52.1147 128.822 52.8862 129.549 53.5912C130.474 54.4903 131.534 54.9258 132.726 54.8979L132.604 57.1401C131.785 57.2247 130.975 57.1018 130.171 56.7714C129.368 56.441 128.603 55.9233 127.877 55.2183C126.951 54.3192 126.314 53.3432 125.967 52.2904C125.619 51.2376 125.567 50.196 125.812 49.1655C126.076 48.1348 126.612 47.2038 127.42 46.3725C128.216 45.5517 129.116 44.994 130.118 44.6992C131.14 44.404 132.162 44.3942 133.182 44.6695C134.203 44.9449 135.128 45.4862 135.96 46.2933C136.781 47.0902 137.333 47.9845 137.617 48.976C137.922 49.9672 137.932 50.968 137.646 51.9783C137.381 52.9883 136.829 53.9247 135.992 54.7875ZM134.427 47.8717C133.796 47.2587 133.075 46.927 132.266 46.8767C131.477 46.8261 130.733 47.0653 130.036 47.5942L134.818 52.2378C135.327 51.5457 135.549 50.8008 135.485 50.0031C135.422 49.2054 135.069 48.4949 134.427 47.8717Z" fill="#740B0B"/>
<path d="M153.227 61.6701L154.307 63.958L135.686 72.7496L134.606 70.4617L153.227 61.6701Z" fill="#740B0B"/>
</svg>
