<svg width="1522" height="754" viewBox="0 0 1522 754" fill="none" xmlns="http://www.w3.org/2000/svg">
<path fill-rule="evenodd" clip-rule="evenodd" d="M1522 37.6815C1520.95 35.9951 1520.4 35.121 1520.4 35.121C1267.26 35.121 1043.31 24.3664 843.259 14.7597C501.039 -1.67425 228.77 -14.7491 0 35.121V729.264C319.441 699.163 601.362 718.633 852.197 735.957C1104.11 753.356 1324.68 768.589 1520.4 729.264C1520.93 729.157 1521.47 729.048 1522 728.939V37.6815Z" fill="#740B0B" fill-opacity="0.84"/>
<path fill-rule="evenodd" clip-rule="evenodd" d="M1522 37.0006C1521.34 36.2687 1520.71 35.5756 1520.1 34.9219C1484.23 -3.51898 1263.41 8.07298 971.131 23.4162C680.973 38.6482 320.389 57.5771 0.41275 34.9219C0.41275 34.9219 0.272339 35.1806 0 35.688V729.647C0.137482 729.669 0.275055 729.691 0.41275 729.713C235.582 766.702 637.262 753.616 1015.38 741.298H1015.38H1015.39C1195.89 735.418 1371.01 729.713 1520.1 729.713C1520.74 729.713 1521.37 729.711 1522 729.709V37.0006Z" fill="#740B0B" fill-opacity="0.68"/>
</svg>
